<mxfile host="Electron" agent="Mozilla/5.0 (X11; Linux x86_64) AppleWebKit/537.36 (KHTML, like Gecko) draw.io/26.0.4 Chrome/128.0.6613.186 Electron/32.2.5 Safari/537.36" version="26.0.4">
  <diagram name="Page-1" id="Wd5tNecn7fXlNbxg7ILx">
    <mxGraphModel dx="1114" dy="1198" grid="1" gridSize="10" guides="1" tooltips="1" connect="1" arrows="1" fold="1" page="1" pageScale="1" pageWidth="850" pageHeight="1100" math="0" shadow="0">
      <root>
        <mxCell id="0" />
        <mxCell id="1" parent="0" />
        <mxCell id="jakJsWiWA1uRLtDqbezb-12" value="AWS Cloud" style="points=[[0,0],[0.25,0],[0.5,0],[0.75,0],[1,0],[1,0.25],[1,0.5],[1,0.75],[1,1],[0.75,1],[0.5,1],[0.25,1],[0,1],[0,0.75],[0,0.5],[0,0.25]];outlineConnect=0;gradientColor=none;html=1;whiteSpace=wrap;fontSize=12;fontStyle=0;container=1;pointerEvents=0;collapsible=0;recursiveResize=0;shape=mxgraph.aws4.group;grIcon=mxgraph.aws4.group_aws_cloud_alt;strokeColor=#232F3E;fillColor=none;verticalAlign=top;align=left;spacingLeft=30;fontColor=#232F3E;dashed=0;" vertex="1" parent="1">
          <mxGeometry x="233" y="180" width="590" height="670" as="geometry" />
        </mxCell>
        <mxCell id="jakJsWiWA1uRLtDqbezb-19" value="Triggers Transcribe&lt;div&gt;Lambda&lt;/div&gt;" style="edgeStyle=orthogonalEdgeStyle;rounded=0;orthogonalLoop=1;jettySize=auto;html=1;" edge="1" parent="jakJsWiWA1uRLtDqbezb-12" source="jakJsWiWA1uRLtDqbezb-7" target="jakJsWiWA1uRLtDqbezb-4">
          <mxGeometry relative="1" as="geometry" />
        </mxCell>
        <mxCell id="jakJsWiWA1uRLtDqbezb-7" value="Raw-Bucket" style="sketch=0;outlineConnect=0;fontColor=#232F3E;gradientColor=none;fillColor=#7AA116;strokeColor=none;dashed=0;verticalLabelPosition=bottom;verticalAlign=top;align=center;html=1;fontSize=12;fontStyle=0;aspect=fixed;pointerEvents=1;shape=mxgraph.aws4.bucket;" vertex="1" parent="jakJsWiWA1uRLtDqbezb-12">
          <mxGeometry x="48.5" y="36" width="75" height="78" as="geometry" />
        </mxCell>
        <mxCell id="jakJsWiWA1uRLtDqbezb-25" value="Lambda reads SQS&lt;div&gt;for processing request&lt;/div&gt;" style="edgeStyle=orthogonalEdgeStyle;rounded=0;orthogonalLoop=1;jettySize=auto;html=1;" edge="1" parent="jakJsWiWA1uRLtDqbezb-12" source="jakJsWiWA1uRLtDqbezb-6" target="jakJsWiWA1uRLtDqbezb-22">
          <mxGeometry relative="1" as="geometry" />
        </mxCell>
        <mxCell id="jakJsWiWA1uRLtDqbezb-6" value="SQS for Audio&amp;nbsp;&lt;div&gt;files processed&lt;/div&gt;" style="sketch=0;points=[[0,0,0],[0.25,0,0],[0.5,0,0],[0.75,0,0],[1,0,0],[0,1,0],[0.25,1,0],[0.5,1,0],[0.75,1,0],[1,1,0],[0,0.25,0],[0,0.5,0],[0,0.75,0],[1,0.25,0],[1,0.5,0],[1,0.75,0]];outlineConnect=0;fontColor=#232F3E;fillColor=#E7157B;strokeColor=#ffffff;dashed=0;verticalLabelPosition=middle;verticalAlign=middle;align=right;html=1;fontSize=12;fontStyle=0;aspect=fixed;shape=mxgraph.aws4.resourceIcon;resIcon=mxgraph.aws4.sqs;labelPosition=left;spacingRight=5;" vertex="1" parent="jakJsWiWA1uRLtDqbezb-12">
          <mxGeometry x="265" y="200" width="78" height="78" as="geometry" />
        </mxCell>
        <mxCell id="jakJsWiWA1uRLtDqbezb-10" value="Amazon CloudWatch&amp;nbsp;&lt;span style=&quot;background-color: transparent; color: light-dark(rgb(35, 47, 62), rgb(189, 199, 212));&quot;&gt;Logs&lt;/span&gt;" style="sketch=0;points=[[0,0,0],[0.25,0,0],[0.5,0,0],[0.75,0,0],[1,0,0],[0,1,0],[0.25,1,0],[0.5,1,0],[0.75,1,0],[1,1,0],[0,0.25,0],[0,0.5,0],[0,0.75,0],[1,0.25,0],[1,0.5,0],[1,0.75,0]];points=[[0,0,0],[0.25,0,0],[0.5,0,0],[0.75,0,0],[1,0,0],[0,1,0],[0.25,1,0],[0.5,1,0],[0.75,1,0],[1,1,0],[0,0.25,0],[0,0.5,0],[0,0.75,0],[1,0.25,0],[1,0.5,0],[1,0.75,0]];outlineConnect=0;fontColor=#232F3E;fillColor=#E7157B;strokeColor=#ffffff;dashed=0;verticalLabelPosition=bottom;verticalAlign=top;align=center;html=1;fontSize=12;fontStyle=0;aspect=fixed;shape=mxgraph.aws4.resourceIcon;resIcon=mxgraph.aws4.cloudwatch_2;" vertex="1" parent="jakJsWiWA1uRLtDqbezb-12">
          <mxGeometry x="265" y="540" width="78" height="78" as="geometry" />
        </mxCell>
        <mxCell id="jakJsWiWA1uRLtDqbezb-20" value="Invoke Transcribe&lt;div&gt;Job&lt;/div&gt;" style="edgeStyle=orthogonalEdgeStyle;rounded=0;orthogonalLoop=1;jettySize=auto;html=1;" edge="1" parent="jakJsWiWA1uRLtDqbezb-12" source="jakJsWiWA1uRLtDqbezb-4" target="jakJsWiWA1uRLtDqbezb-5">
          <mxGeometry relative="1" as="geometry" />
        </mxCell>
        <mxCell id="jakJsWiWA1uRLtDqbezb-26" style="edgeStyle=orthogonalEdgeStyle;rounded=0;orthogonalLoop=1;jettySize=auto;html=1;" edge="1" parent="jakJsWiWA1uRLtDqbezb-12" source="jakJsWiWA1uRLtDqbezb-4" target="jakJsWiWA1uRLtDqbezb-6">
          <mxGeometry relative="1" as="geometry" />
        </mxCell>
        <mxCell id="jakJsWiWA1uRLtDqbezb-4" value="AWS Lambda Function" style="sketch=0;points=[[0,0,0],[0.25,0,0],[0.5,0,0],[0.75,0,0],[1,0,0],[0,1,0],[0.25,1,0],[0.5,1,0],[0.75,1,0],[1,1,0],[0,0.25,0],[0,0.5,0],[0,0.75,0],[1,0.25,0],[1,0.5,0],[1,0.75,0]];outlineConnect=0;fontColor=#232F3E;fillColor=#ED7100;strokeColor=#ffffff;dashed=0;verticalLabelPosition=top;verticalAlign=bottom;align=center;html=1;fontSize=12;fontStyle=0;aspect=fixed;shape=mxgraph.aws4.resourceIcon;resIcon=mxgraph.aws4.lambda;labelPosition=center;" vertex="1" parent="jakJsWiWA1uRLtDqbezb-12">
          <mxGeometry x="265" y="36" width="78" height="78" as="geometry" />
        </mxCell>
        <mxCell id="jakJsWiWA1uRLtDqbezb-9" value="Amazon&lt;div&gt;CloudWatch&lt;/div&gt;&lt;div&gt;Event&lt;/div&gt;" style="sketch=0;outlineConnect=0;fontColor=#232F3E;gradientColor=none;fillColor=#E7157B;strokeColor=none;dashed=0;verticalLabelPosition=bottom;verticalAlign=top;align=center;html=1;fontSize=12;fontStyle=0;aspect=fixed;pointerEvents=1;shape=mxgraph.aws4.event_event_based;" vertex="1" parent="jakJsWiWA1uRLtDqbezb-12">
          <mxGeometry x="47" y="366" width="78" height="78" as="geometry" />
        </mxCell>
        <mxCell id="jakJsWiWA1uRLtDqbezb-29" value="Transcribe&lt;div&gt;Output (json)&lt;/div&gt;" style="edgeStyle=orthogonalEdgeStyle;rounded=0;orthogonalLoop=1;jettySize=auto;html=1;" edge="1" parent="jakJsWiWA1uRLtDqbezb-12" source="jakJsWiWA1uRLtDqbezb-5" target="jakJsWiWA1uRLtDqbezb-23">
          <mxGeometry relative="1" as="geometry" />
        </mxCell>
        <mxCell id="jakJsWiWA1uRLtDqbezb-5" value="Amazon Transcribe" style="sketch=0;points=[[0,0,0],[0.25,0,0],[0.5,0,0],[0.75,0,0],[1,0,0],[0,1,0],[0.25,1,0],[0.5,1,0],[0.75,1,0],[1,1,0],[0,0.25,0],[0,0.5,0],[0,0.75,0],[1,0.25,0],[1,0.5,0],[1,0.75,0]];outlineConnect=0;fontColor=#232F3E;fillColor=#01A88D;strokeColor=#ffffff;dashed=0;verticalLabelPosition=top;verticalAlign=bottom;align=center;html=1;fontSize=12;fontStyle=0;aspect=fixed;shape=mxgraph.aws4.resourceIcon;resIcon=mxgraph.aws4.transcribe;labelPosition=center;" vertex="1" parent="jakJsWiWA1uRLtDqbezb-12">
          <mxGeometry x="480" y="36" width="78" height="78" as="geometry" />
        </mxCell>
        <mxCell id="jakJsWiWA1uRLtDqbezb-24" value="Put CSV&lt;div&gt;Object builds&lt;/div&gt;&lt;div&gt;Athena Table&lt;/div&gt;" style="edgeStyle=orthogonalEdgeStyle;rounded=0;orthogonalLoop=1;jettySize=auto;html=1;" edge="1" parent="jakJsWiWA1uRLtDqbezb-12" source="jakJsWiWA1uRLtDqbezb-22" target="jakJsWiWA1uRLtDqbezb-23">
          <mxGeometry relative="1" as="geometry" />
        </mxCell>
        <mxCell id="jakJsWiWA1uRLtDqbezb-22" value="AWS Lambda to&lt;div&gt;Convert Transcribe&lt;div&gt;output to CSV&lt;/div&gt;&lt;/div&gt;" style="sketch=0;points=[[0,0,0],[0.25,0,0],[0.5,0,0],[0.75,0,0],[1,0,0],[0,1,0],[0.25,1,0],[0.5,1,0],[0.75,1,0],[1,1,0],[0,0.25,0],[0,0.5,0],[0,0.75,0],[1,0.25,0],[1,0.5,0],[1,0.75,0]];outlineConnect=0;fontColor=#232F3E;fillColor=#ED7100;strokeColor=#ffffff;dashed=0;verticalLabelPosition=bottom;verticalAlign=top;align=center;html=1;fontSize=12;fontStyle=0;aspect=fixed;shape=mxgraph.aws4.resourceIcon;resIcon=mxgraph.aws4.lambda;" vertex="1" parent="jakJsWiWA1uRLtDqbezb-12">
          <mxGeometry x="265" y="366" width="78" height="78" as="geometry" />
        </mxCell>
        <mxCell id="jakJsWiWA1uRLtDqbezb-8" value="Amazon&lt;div&gt;Athena&lt;/div&gt;" style="sketch=0;points=[[0,0,0],[0.25,0,0],[0.5,0,0],[0.75,0,0],[1,0,0],[0,1,0],[0.25,1,0],[0.5,1,0],[0.75,1,0],[1,1,0],[0,0.25,0],[0,0.5,0],[0,0.75,0],[1,0.25,0],[1,0.5,0],[1,0.75,0]];outlineConnect=0;fontColor=#232F3E;fillColor=#8C4FFF;strokeColor=#ffffff;dashed=0;verticalLabelPosition=middle;verticalAlign=middle;align=right;html=1;fontSize=12;fontStyle=0;aspect=fixed;shape=mxgraph.aws4.resourceIcon;resIcon=mxgraph.aws4.athena;labelPosition=left;spacingRight=5;" vertex="1" parent="jakJsWiWA1uRLtDqbezb-12">
          <mxGeometry x="480" y="540" width="78" height="78" as="geometry" />
        </mxCell>
        <mxCell id="jakJsWiWA1uRLtDqbezb-27" style="edgeStyle=orthogonalEdgeStyle;rounded=0;orthogonalLoop=1;jettySize=auto;html=1;" edge="1" parent="jakJsWiWA1uRLtDqbezb-12" source="jakJsWiWA1uRLtDqbezb-8" target="jakJsWiWA1uRLtDqbezb-23">
          <mxGeometry relative="1" as="geometry" />
        </mxCell>
        <mxCell id="jakJsWiWA1uRLtDqbezb-23" value="Processed&lt;div&gt;Bucket&lt;/div&gt;" style="sketch=0;outlineConnect=0;fontColor=#232F3E;gradientColor=none;fillColor=#7AA116;strokeColor=none;dashed=0;verticalLabelPosition=top;verticalAlign=bottom;align=right;html=1;fontSize=12;fontStyle=0;aspect=fixed;pointerEvents=1;shape=mxgraph.aws4.bucket;labelPosition=left;" vertex="1" parent="jakJsWiWA1uRLtDqbezb-12">
          <mxGeometry x="481.5" y="366" width="75" height="78" as="geometry" />
        </mxCell>
        <mxCell id="jakJsWiWA1uRLtDqbezb-11" value="IAM" style="sketch=0;points=[[0,0,0],[0.25,0,0],[0.5,0,0],[0.75,0,0],[1,0,0],[0,1,0],[0.25,1,0],[0.5,1,0],[0.75,1,0],[1,1,0],[0,0.25,0],[0,0.5,0],[0,0.75,0],[1,0.25,0],[1,0.5,0],[1,0.75,0]];outlineConnect=0;fontColor=#232F3E;fillColor=#DD344C;strokeColor=#ffffff;dashed=0;verticalLabelPosition=bottom;verticalAlign=top;align=center;html=1;fontSize=12;fontStyle=0;aspect=fixed;shape=mxgraph.aws4.resourceIcon;resIcon=mxgraph.aws4.identity_and_access_management;" vertex="1" parent="jakJsWiWA1uRLtDqbezb-12">
          <mxGeometry x="47" y="540" width="78" height="78" as="geometry" />
        </mxCell>
        <mxCell id="jakJsWiWA1uRLtDqbezb-28" value="Amazon&lt;div&gt;CloudWatch&lt;div&gt;Schedule Rule&lt;/div&gt;&lt;/div&gt;" style="edgeStyle=orthogonalEdgeStyle;rounded=0;orthogonalLoop=1;jettySize=auto;html=1;entryX=0;entryY=0.5;entryDx=0;entryDy=0;entryPerimeter=0;" edge="1" parent="jakJsWiWA1uRLtDqbezb-12" source="jakJsWiWA1uRLtDqbezb-9" target="jakJsWiWA1uRLtDqbezb-22">
          <mxGeometry relative="1" as="geometry" />
        </mxCell>
        <mxCell id="jakJsWiWA1uRLtDqbezb-32" value="2" style="rounded=0;whiteSpace=wrap;html=1;fillColor=#fff2cc;strokeColor=#d6b656;" vertex="1" parent="jakJsWiWA1uRLtDqbezb-12">
          <mxGeometry x="182" y="94" width="20" height="20" as="geometry" />
        </mxCell>
        <mxCell id="jakJsWiWA1uRLtDqbezb-33" value="3" style="rounded=0;whiteSpace=wrap;html=1;fillColor=#fff2cc;strokeColor=#d6b656;" vertex="1" parent="jakJsWiWA1uRLtDqbezb-12">
          <mxGeometry x="407" y="94" width="20" height="20" as="geometry" />
        </mxCell>
        <mxCell id="jakJsWiWA1uRLtDqbezb-34" value="4" style="rounded=0;whiteSpace=wrap;html=1;fillColor=#fff2cc;strokeColor=#d6b656;" vertex="1" parent="jakJsWiWA1uRLtDqbezb-12">
          <mxGeometry x="347" y="230" width="20" height="20" as="geometry" />
        </mxCell>
        <mxCell id="jakJsWiWA1uRLtDqbezb-35" value="5" style="rounded=0;whiteSpace=wrap;html=1;fillColor=#fff2cc;strokeColor=#d6b656;" vertex="1" parent="jakJsWiWA1uRLtDqbezb-12">
          <mxGeometry x="527" y="200" width="20" height="20" as="geometry" />
        </mxCell>
        <mxCell id="jakJsWiWA1uRLtDqbezb-36" value="6" style="rounded=0;whiteSpace=wrap;html=1;fillColor=#fff2cc;strokeColor=#d6b656;" vertex="1" parent="jakJsWiWA1uRLtDqbezb-12">
          <mxGeometry x="137" y="380" width="20" height="20" as="geometry" />
        </mxCell>
        <mxCell id="jakJsWiWA1uRLtDqbezb-37" value="7" style="rounded=0;whiteSpace=wrap;html=1;fillColor=#fff2cc;strokeColor=#d6b656;" vertex="1" parent="jakJsWiWA1uRLtDqbezb-12">
          <mxGeometry x="227" y="310" width="20" height="20" as="geometry" />
        </mxCell>
        <mxCell id="jakJsWiWA1uRLtDqbezb-38" value="8" style="rounded=0;whiteSpace=wrap;html=1;fillColor=#fff2cc;strokeColor=#d6b656;" vertex="1" parent="jakJsWiWA1uRLtDqbezb-12">
          <mxGeometry x="527" y="500" width="20" height="20" as="geometry" />
        </mxCell>
        <mxCell id="jakJsWiWA1uRLtDqbezb-21" value="&amp;nbsp;Put Audio&lt;div&gt;Object&amp;nbsp;&lt;/div&gt;" style="edgeStyle=orthogonalEdgeStyle;rounded=0;orthogonalLoop=1;jettySize=auto;html=1;exitX=1;exitY=0.25;exitDx=0;exitDy=0;" edge="1" parent="1" source="jakJsWiWA1uRLtDqbezb-13" target="jakJsWiWA1uRLtDqbezb-7">
          <mxGeometry x="-0.264" y="1" relative="1" as="geometry">
            <mxPoint y="1" as="offset" />
          </mxGeometry>
        </mxCell>
        <mxCell id="jakJsWiWA1uRLtDqbezb-13" value="" style="rounded=0;whiteSpace=wrap;html=1;dashed=1;fillColor=none;" vertex="1" parent="1">
          <mxGeometry x="27" y="190" width="110" height="262" as="geometry" />
        </mxCell>
        <mxCell id="jakJsWiWA1uRLtDqbezb-1" value="Users" style="sketch=0;outlineConnect=0;fontColor=#232F3E;gradientColor=none;fillColor=#232F3D;strokeColor=none;dashed=0;verticalLabelPosition=bottom;verticalAlign=top;align=center;html=1;fontSize=12;fontStyle=0;aspect=fixed;pointerEvents=1;shape=mxgraph.aws4.users;" vertex="1" parent="1">
          <mxGeometry x="43" y="210" width="78" height="78" as="geometry" />
        </mxCell>
        <mxCell id="jakJsWiWA1uRLtDqbezb-2" value="Enterprise Apps" style="sketch=0;outlineConnect=0;fontColor=#232F3E;gradientColor=none;fillColor=#232F3D;strokeColor=none;dashed=0;verticalLabelPosition=bottom;verticalAlign=top;align=center;html=1;fontSize=12;fontStyle=0;aspect=fixed;pointerEvents=1;shape=mxgraph.aws4.source_code;" vertex="1" parent="1">
          <mxGeometry x="53.5" y="330" width="57" height="78" as="geometry" />
        </mxCell>
        <mxCell id="jakJsWiWA1uRLtDqbezb-39" style="edgeStyle=orthogonalEdgeStyle;rounded=0;orthogonalLoop=1;jettySize=auto;html=1;" edge="1" parent="1" source="jakJsWiWA1uRLtDqbezb-30" target="jakJsWiWA1uRLtDqbezb-8">
          <mxGeometry relative="1" as="geometry" />
        </mxCell>
        <mxCell id="jakJsWiWA1uRLtDqbezb-30" value="Analysts (SQL Query)" style="sketch=0;outlineConnect=0;fontColor=#232F3E;gradientColor=none;fillColor=#232F3D;strokeColor=none;dashed=0;verticalLabelPosition=bottom;verticalAlign=top;align=center;html=1;fontSize=12;fontStyle=0;aspect=fixed;pointerEvents=1;shape=mxgraph.aws4.users;" vertex="1" parent="1">
          <mxGeometry x="713" y="880" width="78" height="78" as="geometry" />
        </mxCell>
        <mxCell id="jakJsWiWA1uRLtDqbezb-31" value="1" style="rounded=0;whiteSpace=wrap;html=1;fillColor=#fff2cc;strokeColor=#d6b656;" vertex="1" parent="1">
          <mxGeometry x="180" y="274" width="20" height="20" as="geometry" />
        </mxCell>
      </root>
    </mxGraphModel>
  </diagram>
</mxfile>
